<svg width="104" height="65" viewBox="0 0 104 65" fill="none" xmlns="http://www.w3.org/2000/svg">
<path d="M103.418 18.9013C103.418 34.8043 80.332 53.8821 51.8538 61.5128C23.3755 69.1436 0.289368 62.4376 0.289368 46.5346C0.289368 30.6316 23.3755 11.5537 51.8538 3.92302C80.332 -3.7077 103.418 2.99831 103.418 18.9013Z" fill="#FF3300"/>
<path d="M23.6092 55.7011C17.2341 57.4093 14.1994 52.8087 14.3795 42.4903C14.5401 33.2917 17.6226 26.3355 24.2296 24.5652C28.2092 23.4988 31.1023 25.1916 32.4958 29.0776L26.9717 32.7073C26.5057 30.7622 25.6021 29.6509 24.1339 30.0443C21.3907 30.7794 20.4413 34.497 20.3296 40.896C20.2026 48.1749 21.1548 50.9052 23.7048 50.222C25.7526 49.6733 26.594 47.7361 26.6617 43.8567L26.6812 42.7369L23.3584 43.6272L23.4478 38.508L32.7593 36.013L32.6986 39.4925C32.5604 47.4112 30.4093 53.879 23.6092 55.7011Z" fill="white"/>
<path d="M46.3781 49.1225L33.8597 52.4768L34.386 22.3214L46.9044 18.9671L46.8116 24.2863L40.166 26.067L40.0508 32.666L46.1941 31.0199L46.1013 36.3391L39.958 37.9852L39.8254 45.584L46.4709 43.8033L46.3781 49.1225Z" fill="white"/>
<path d="M60.3971 34.7377L60.1962 15.4056L65.7599 13.9148L65.2336 44.0702L60.0176 45.4678L53.5588 27.7329L53.5652 47.1968L48.0014 48.6876L48.5278 18.5321L53.9756 17.0724L60.3971 34.7377Z" fill="white"/>
<path d="M73.4116 41.8789L67.5388 43.4525L68.0652 13.2971L73.938 11.7235L73.4116 41.8789Z" fill="white"/>
<path d="M88.2374 37.9064L75.719 41.2607L76.2453 11.1053L88.7638 7.75096L88.6709 13.0701L82.0253 14.8508L81.9101 21.4498L88.0534 19.8037L87.9606 25.1229L81.8173 26.769L81.6847 34.3679L88.3302 32.5872L88.2374 37.9064Z" fill="white"/>
</svg>
