<svg width="76" height="49" viewBox="0 0 76 49" fill="none" xmlns="http://www.w3.org/2000/svg">
<path d="M10.066 48.6474C3.69091 50.3556 0.656253 45.755 0.836362 35.4366C0.996924 26.238 4.07948 19.2818 10.6864 17.5115C14.666 16.4451 17.5592 18.1379 18.9527 22.0239L13.4285 25.6536C12.9625 23.7086 12.059 22.5972 10.5908 22.9906C7.84755 23.7257 6.89816 27.4433 6.78646 33.8423C6.65941 41.1212 7.61162 43.8515 10.1617 43.1683C12.2094 42.6196 13.0508 40.6824 13.1185 36.803L13.1381 35.6832L9.8153 36.5735L9.90465 31.4543L19.2162 28.9593L19.1554 32.4388C19.0172 40.3576 16.8661 46.8253 10.066 48.6474Z" fill="#FF3300"/>
<path d="M32.8349 42.0688L20.3165 45.4231L20.8429 15.2677L33.3613 11.9134L33.2685 17.2326L26.6229 19.0133L26.5077 25.6123L32.651 23.9662L32.5581 29.2854L26.4148 30.9315L26.2822 38.5303L32.9278 36.7496L32.8349 42.0688Z" fill="#FF3300"/>
<path d="M46.854 27.684L46.653 8.35192L52.2168 6.86112L51.6904 37.0165L46.4744 38.4142L40.0157 20.6792L40.022 40.1431L34.4583 41.6339L34.9847 11.4785L40.4325 10.0187L46.854 27.684Z" fill="#FF3300"/>
<path d="M59.8685 34.8252L53.9957 36.3988L54.522 6.24343L60.3948 4.66982L59.8685 34.8252Z" fill="#FF3300"/>
<path d="M74.6942 30.8527L62.1758 34.207L62.7022 4.05156L75.2206 0.697266L75.1278 6.01645L68.4822 7.79713L68.367 14.3961L74.5103 12.75L74.4174 18.0692L68.2741 19.7153L68.1415 27.3142L74.7871 25.5335L74.6942 30.8527Z" fill="#FF3300"/>
</svg>
