<svg width="40" height="12" viewBox="0 0 40 12" fill="none" xmlns="http://www.w3.org/2000/svg">
<path d="M4.57962 10.6406C3.92728 10.6406 3.36087 10.5391 2.8804 10.3359C2.40384 10.1289 2.03079 9.83398 1.76126 9.45117C1.49173 9.06836 1.34134 8.61328 1.31009 8.08594H2.63431C2.66165 8.40234 2.76321 8.66602 2.939 8.87695C3.11868 9.08398 3.3511 9.23828 3.63626 9.33984C3.92142 9.44141 4.23392 9.49219 4.57376 9.49219C4.94485 9.49219 5.27689 9.43359 5.56985 9.31641C5.86282 9.19922 6.09134 9.03516 6.2554 8.82422C6.42337 8.60938 6.50735 8.35938 6.50735 8.07422C6.50735 7.81641 6.43314 7.60547 6.2847 7.44141C6.14017 7.27734 5.9429 7.14258 5.6929 7.03711C5.4429 6.92773 5.16165 6.83203 4.84915 6.75L3.82376 6.46875C3.12064 6.28125 2.56595 6.00195 2.1597 5.63086C1.75345 5.25586 1.55032 4.76562 1.55032 4.16016C1.55032 3.65625 1.68509 3.2168 1.95462 2.8418C2.22806 2.4668 2.5972 2.17578 3.06204 1.96875C3.53079 1.75781 4.05618 1.65234 4.63821 1.65234C5.23196 1.65234 5.75345 1.75781 6.20267 1.96875C6.65579 2.17578 7.01321 2.46094 7.27493 2.82422C7.54056 3.18359 7.67923 3.5957 7.69095 4.06055H6.4136C6.36673 3.6582 6.17923 3.3457 5.8511 3.12305C5.52689 2.90039 5.11282 2.78906 4.60892 2.78906C4.25735 2.78906 3.94876 2.8457 3.68314 2.95898C3.42142 3.06836 3.21829 3.2207 3.07376 3.41602C2.93314 3.61133 2.86282 3.83594 2.86282 4.08984C2.86282 4.36328 2.94681 4.58594 3.11478 4.75781C3.28665 4.92969 3.49368 5.06641 3.73587 5.16797C3.98196 5.26562 4.21829 5.3457 4.44485 5.4082L5.29446 5.63672C5.57181 5.70703 5.85696 5.80078 6.14993 5.91797C6.4429 6.03516 6.71439 6.18945 6.96439 6.38086C7.21829 6.56836 7.42142 6.80273 7.57376 7.08398C7.73001 7.36133 7.80814 7.69727 7.80814 8.0918C7.80814 8.58008 7.68118 9.01758 7.42728 9.4043C7.17337 9.78711 6.80618 10.0898 6.32571 10.3125C5.84525 10.5312 5.26321 10.6406 4.57962 10.6406ZM14.4937 1.76953H15.812V7.51172C15.812 8.12109 15.6675 8.66211 15.3784 9.13477C15.0933 9.60352 14.6909 9.97266 14.1714 10.2422C13.6519 10.5078 13.0425 10.6406 12.3433 10.6406C11.648 10.6406 11.0386 10.5078 10.5152 10.2422C9.99564 9.97266 9.59134 9.60352 9.30228 9.13477C9.01712 8.66211 8.87454 8.12109 8.87454 7.51172V1.76953H10.1929V7.40625C10.1929 7.80078 10.2788 8.15234 10.4507 8.46094C10.6265 8.76562 10.8745 9.00586 11.1949 9.18164C11.5191 9.35742 11.9019 9.44531 12.3433 9.44531C12.7886 9.44531 13.1714 9.35742 13.4917 9.18164C13.812 9.00586 14.0581 8.76562 14.23 8.46094C14.4058 8.15234 14.4937 7.80078 14.4937 7.40625V1.76953ZM16.7847 2.90039V1.76953H23.5464V2.90039H20.8277V10.5H19.5152V2.90039H16.7847ZM24.5191 10.5V1.76953H27.6363C28.312 1.76953 28.8726 1.88672 29.3179 2.12109C29.7632 2.35156 30.0972 2.67383 30.3199 3.08789C30.5425 3.49805 30.6538 3.97266 30.6538 4.51172C30.6538 5.04297 30.5425 5.51172 30.3199 5.91797C30.0972 6.32422 29.7613 6.63867 29.312 6.86133C28.8667 7.08398 28.3042 7.19531 27.6245 7.19531H25.2749V6.07031H27.5015C27.9351 6.07031 28.2847 6.00781 28.5503 5.88281C28.8199 5.75781 29.0152 5.58008 29.1363 5.34961C29.2613 5.11914 29.3238 4.83984 29.3238 4.51172C29.3238 4.17969 29.2613 3.89453 29.1363 3.65625C29.0113 3.41406 28.814 3.22852 28.5445 3.09961C28.2788 2.9668 27.9292 2.90039 27.4956 2.90039H25.8374V10.5H24.5191ZM29.4878 10.5L27.3726 6.55664H28.8316L30.9878 10.5H29.4878Z" fill="#000AFF"/>
<path d="M33.0181 8.81229H31.8857L34.4254 1.75226H35.6573L38.1923 8.81229H37.0646L35.065 3.03633H35.0082L33.0181 8.81229ZM33.2076 6.04988H36.8703V6.94067H33.2076V6.04988Z" fill="#000AFF"/>
<rect x="31.7447" y="9.42121" width="6.61606" height="1.07879" fill="black"/>
</svg>
