<svg width="104" height="27" viewBox="0 0 104 27" fill="none" xmlns="http://www.w3.org/2000/svg">
<path d="M10.26 26.612C4.428 26.612 1.08 23.408 1.08 17.756H5.22C5.22 21.032 7.092 23.012 10.224 23.012C12.96 23.012 14.472 21.752 14.472 19.484C14.472 17.576 13.572 16.604 10.728 15.452L6.624 13.796C3.456 12.572 1.8 10.304 1.8 7.1C1.8 2.996 5.112 0.188 9.864 0.188C14.868 0.188 18.18 3.32 18.18 8.072H14.04C14.04 5.3 12.528 3.716 9.72 3.716C7.344 3.716 5.976 4.94 5.976 6.848C5.976 8.576 7.2 9.728 10.152 10.916L13.86 12.428C17.028 13.724 18.612 15.956 18.612 19.376C18.612 23.696 15.264 26.612 10.26 26.612ZM31.3833 26.612C25.7313 26.612 22.0233 23.516 22.0233 17.648V0.799998H26.1633V17.396C26.1633 21.032 28.2153 22.904 31.3833 22.904C34.5513 22.904 36.6033 21.032 36.6033 17.396V0.799998H40.7433V17.648C40.7433 23.516 37.0353 26.612 31.3833 26.612ZM50.3786 26V4.688H43.0706V0.799998H61.8626V4.688H54.5186V26H50.3786ZM82.6788 9.62C82.6788 13.544 80.5548 16.64 77.3148 17.864L82.2828 26H77.5668L72.9588 18.44H68.8908V26H64.7508V0.799998H74.0388C79.0788 0.799998 82.6788 4.472 82.6788 9.62ZM68.8908 4.508V14.732H73.7868C76.5228 14.732 78.5388 12.572 78.5388 9.62C78.5388 6.668 76.5228 4.508 73.7868 4.508H68.8908Z" fill="#3060FF"/>
<path d="M99.227 21L98.444 18.419H90.643L89.86 21H86.235L93.079 0.699999H96.008L102.852 21H99.227ZM91.513 15.432H97.545L94.529 5.369L91.513 15.432Z" fill="#3060FF"/>
<rect x="85" y="23.1" width="19" height="3" fill="#3060FF"/>
</svg>
