<svg id="Layer_1" xmlns="http://www.w3.org/2000/svg" viewBox="0 0 189.286 250"><path d="M35.714,107.143h10.714c0-33.529,27.186-60.714,60.714-60.714,7.455,0,14.592,1.351,21.191,3.809,2.459,6.598,3.809,13.736,3.809,21.191,0,37.656-34.415,55.906-60.714,76.421L0,203.571v10.714H67.761l-32.047,25v10.714H189.286v-10.714l-35.714-35.714h-54.77l15.927-12.429c29.106-22.713,63.843-42.764,63.843-84,0-28.969-17.244-53.909-42.027-65.116C125.337,17.243,100.397,0,71.429,0,31.979,0,0,31.979,0,71.429l35.714,35.714ZM107.143,35.714c-34.724,0-63.654,24.777-70.089,57.615l-26.173-26.173c2.195-31.533,28.457-56.442,60.548-56.442,20.816,0,39.181,10.484,50.119,26.453-4.653-.953-9.47-1.453-14.405-1.453ZM17.321,203.571l61.693-48.143c29.106-22.713,63.843-42.764,63.843-84,0-4.935-.5-9.752-1.453-14.405,15.97,10.939,26.453,29.303,26.453,50.119,0,37.656-34.415,55.906-60.714,76.421l-25.647,20.007H17.321Zm156.811,35.714H53.036l32.036-25h64.06l25,25Z"/></svg>